<svg width="166" height="45" viewBox="0 0 166 45" fill="none" xmlns="http://www.w3.org/2000/svg">
<path d="M1.58026 24V5.81818H8.75355C10.1267 5.81818 11.2985 6.0638 12.2692 6.55504C13.2457 7.04036 13.9885 7.72988 14.4975 8.62358C15.0124 9.51136 15.2699 10.556 15.2699 11.7575C15.2699 12.9648 15.0095 14.0036 14.4886 14.8736C13.9678 15.7377 13.2132 16.4006 12.2248 16.8622C11.2423 17.3239 10.0527 17.5547 8.6559 17.5547H3.85298V14.4652H8.03445C8.76835 14.4652 9.37796 14.3646 9.86328 14.1634C10.3486 13.9621 10.7096 13.6603 10.9464 13.2578C11.189 12.8554 11.3104 12.3552 11.3104 11.7575C11.3104 11.1538 11.189 10.6448 10.9464 10.2305C10.7096 9.81617 10.3456 9.50248 9.8544 9.28942C9.36908 9.07043 8.75651 8.96094 8.01669 8.96094H5.42436V24H1.58026ZM11.3991 15.7259L15.918 24H11.6744L7.2532 15.7259H11.3991ZM17.9865 24V5.81818H30.2379V8.98757H21.8306V13.32H29.6076V16.4893H21.8306V20.8306H30.2734V24H17.9865ZM36.428 24H32.3087L38.5853 5.81818H43.5392L49.8069 24H45.6876L41.1333 9.97301H40.9912L36.428 24ZM36.1705 16.8533H45.9007V19.854H36.1705V16.8533ZM51.9953 24V5.81818H55.8394V20.8306H63.6341V24H51.9953ZM71.966 24V5.81818H84.2174V8.98757H75.8101V13.32H83.5871V16.4893H75.8101V20.8306H84.2529V24H71.966ZM97.1369 11.0472C97.0659 10.3311 96.7611 9.77474 96.2225 9.3782C95.6839 8.98165 94.9529 8.78338 94.0297 8.78338C93.4023 8.78338 92.8726 8.87216 92.4405 9.04972C92.0085 9.22135 91.677 9.46106 91.4462 9.76882C91.2213 10.0766 91.1088 10.4258 91.1088 10.8164C91.097 11.1419 91.1651 11.426 91.313 11.6687C91.4669 11.9113 91.677 12.1214 91.9434 12.299C92.2097 12.4706 92.5175 12.6216 92.8667 12.7518C93.2158 12.8761 93.5887 12.9826 93.9853 13.0714L95.6188 13.462C96.4119 13.6396 97.1399 13.8763 97.8027 14.1722C98.4656 14.4682 99.0397 14.8321 99.525 15.2642C100.01 15.6963 100.386 16.2053 100.653 16.7912C100.925 17.3771 101.064 18.0489 101.07 18.8065C101.064 19.9192 100.78 20.8839 100.218 21.7006C99.6612 22.5115 98.8562 23.1418 97.8027 23.5916C96.7551 24.0355 95.4915 24.2575 94.0119 24.2575C92.5441 24.2575 91.2657 24.0326 90.1767 23.5827C89.0936 23.1329 88.2472 22.4671 87.6376 21.5852C87.0339 20.6974 86.7173 19.5996 86.6877 18.2915H90.4075C90.4489 18.9012 90.6235 19.4102 90.9313 19.8185C91.245 20.221 91.6622 20.5258 92.1831 20.733C92.7098 20.9342 93.3046 21.0348 93.9675 21.0348C94.6185 21.0348 95.1838 20.9401 95.6632 20.7507C96.1485 20.5613 96.5243 20.2979 96.7907 19.9606C97.057 19.6232 97.1902 19.2356 97.1902 18.7976C97.1902 18.3892 97.0688 18.0459 96.8262 17.7678C96.5894 17.4896 96.2402 17.2528 95.7786 17.0575C95.3229 16.8622 94.7636 16.6847 94.1007 16.5249L92.1209 16.0277C90.588 15.6548 89.3777 15.0719 88.4899 14.2788C87.6021 13.4857 87.1612 12.4174 87.1671 11.0739C87.1612 9.97301 87.4541 9.01124 88.046 8.18857C88.6438 7.36589 89.4635 6.72372 90.5051 6.26207C91.5468 5.80043 92.7305 5.5696 94.0563 5.5696C95.4057 5.5696 96.5835 5.80043 97.5897 6.26207C98.6017 6.72372 99.3889 7.36589 99.9512 8.18857C100.513 9.01124 100.803 9.96413 100.821 11.0472H97.1369ZM102.963 8.98757V5.81818H117.896V8.98757H112.329V24H108.529V8.98757H102.963ZM121.267 24H117.148L123.424 5.81818H128.378L134.646 24H130.526L125.972 9.97301H125.83L121.267 24ZM121.009 16.8533H130.74V19.854H121.009V16.8533ZM133.92 8.98757V5.81818H148.853V8.98757H143.286V24H139.486V8.98757H133.92ZM151.312 24V5.81818H163.563V8.98757H155.156V13.32H162.933V16.4893H155.156V20.8306H163.599V24H151.312Z" fill="#141414"/>
<path d="M55.231 44V29.4545H60.9696C62.0729 29.4545 63.0127 29.6652 63.7892 30.0866C64.5658 30.5033 65.1576 31.0833 65.5648 31.8267C65.9767 32.5653 66.1827 33.4176 66.1827 34.3835C66.1827 35.3494 65.9744 36.2017 65.5577 36.9403C65.141 37.679 64.5373 38.2543 63.7466 38.6662C62.9606 39.0781 62.0089 39.2841 60.8915 39.2841H57.2338V36.8196H60.3944C60.9862 36.8196 61.4739 36.7178 61.8574 36.5142C62.2457 36.3059 62.5345 36.0194 62.7239 35.6548C62.918 35.2855 63.0151 34.8617 63.0151 34.3835C63.0151 33.9006 62.918 33.4792 62.7239 33.1193C62.5345 32.7547 62.2457 32.473 61.8574 32.2741C61.4692 32.0705 60.9767 31.9688 60.3801 31.9688H58.3063V44H55.231ZM69.0076 44H65.7122L70.7335 29.4545H74.6966L79.7108 44H76.4153L72.7718 32.7784H72.6582L69.0076 44ZM68.8017 38.2827H76.5858V40.6832H68.8017V38.2827ZM81.4615 44V29.4545H87.2001C88.2986 29.4545 89.2361 29.651 90.0126 30.044C90.7939 30.4323 91.3881 30.9839 91.7953 31.6989C92.2072 32.4091 92.4132 33.2448 92.4132 34.206C92.4132 35.1719 92.2048 36.0028 91.7882 36.6989C91.3715 37.3902 90.7678 37.9205 89.9771 38.2898C89.1911 38.6591 88.2394 38.8438 87.122 38.8438H83.2797V36.3722H86.6248C87.2119 36.3722 87.6996 36.2917 88.0879 36.1307C88.4761 35.9697 88.765 35.7282 88.9544 35.4062C89.1485 35.0843 89.2456 34.6842 89.2456 34.206C89.2456 33.723 89.1485 33.3158 88.9544 32.9844C88.765 32.6529 88.4738 32.402 88.0808 32.2315C87.6925 32.0563 87.2025 31.9688 86.6106 31.9688H84.5368V44H81.4615ZM89.3166 37.3807L92.9316 44H89.5368L85.9998 37.3807H89.3166ZM97.6618 29.4545V44H94.5865V29.4545H97.6618ZM108.083 33.6378C108.026 33.0649 107.782 32.6198 107.351 32.3026C106.92 31.9853 106.335 31.8267 105.597 31.8267C105.095 31.8267 104.671 31.8977 104.325 32.0398C103.98 32.1771 103.715 32.3688 103.53 32.6151C103.35 32.8613 103.26 33.1406 103.26 33.4531C103.251 33.7135 103.305 33.9408 103.423 34.1349C103.547 34.3291 103.715 34.4972 103.928 34.6392C104.141 34.7765 104.387 34.8973 104.666 35.0014C104.946 35.1009 105.244 35.1861 105.561 35.2571L106.868 35.5696C107.503 35.7116 108.085 35.901 108.615 36.1378C109.146 36.3745 109.605 36.6657 109.993 37.0114C110.381 37.357 110.682 37.7642 110.895 38.233C111.113 38.7017 111.224 39.2391 111.229 39.8452C111.224 40.7353 110.997 41.5071 110.547 42.1605C110.102 42.8092 109.458 43.3134 108.615 43.6733C107.777 44.0284 106.766 44.206 105.583 44.206C104.408 44.206 103.386 44.026 102.514 43.6662C101.648 43.3063 100.971 42.7737 100.483 42.0682C100 41.358 99.7469 40.4796 99.7232 39.4332H102.699C102.732 39.9209 102.872 40.3281 103.118 40.6548C103.369 40.9768 103.703 41.2206 104.119 41.3864C104.541 41.5473 105.017 41.6278 105.547 41.6278C106.068 41.6278 106.52 41.5521 106.904 41.4006C107.292 41.2491 107.593 41.0384 107.806 40.7685C108.019 40.4986 108.125 40.1884 108.125 39.8381C108.125 39.5114 108.028 39.2367 107.834 39.0142C107.645 38.7917 107.365 38.6023 106.996 38.446C106.631 38.2898 106.184 38.1477 105.654 38.0199L104.07 37.6222C102.843 37.3239 101.875 36.8575 101.165 36.223C100.455 35.5885 100.102 34.7339 100.107 33.6591C100.102 32.7784 100.336 32.009 100.81 31.3509C101.288 30.6927 101.944 30.179 102.777 29.8097C103.61 29.4403 104.557 29.2557 105.618 29.2557C106.698 29.2557 107.64 29.4403 108.445 29.8097C109.254 30.179 109.884 30.6927 110.334 31.3509C110.784 32.009 111.016 32.7713 111.03 33.6378H108.083Z" fill="#141414"/>
</svg>
