<svg width="73" height="73" viewBox="0 0 73 73" fill="none" xmlns="http://www.w3.org/2000/svg">
<rect width="73" height="73" rx="36.5" fill="#D9D9D9"/>
<path d="M37.5296 19.1012C36.6646 18.2996 35.3284 18.2996 34.4704 19.1012L18.7177 33.7277C18.0426 34.3605 17.8175 35.338 18.1551 36.1959C18.4926 37.0538 19.3154 37.6234 20.2437 37.6234H21.3689V49.9996C21.3689 52.4818 23.3873 54.5 25.8697 54.5H46.1233C48.6057 54.5 50.624 52.4818 50.624 49.9996V37.6234H51.7492C52.6775 37.6234 53.5074 37.0538 53.8449 36.1959C54.1825 35.338 53.9574 34.3535 53.2823 33.7277L37.5296 19.1012ZM34.8713 40.9987H37.1217C38.9853 40.9987 40.4973 42.5105 40.4973 44.374V51.1247H31.4957V44.374C31.4957 42.5105 33.0077 40.9987 34.8713 40.9987Z" fill="#141414"/>
</svg>
